<svg width="295" height="43" viewBox="0 0 295 43" fill="none" xmlns="http://www.w3.org/2000/svg">
<path d="M34.312 0.999997V34H32.86V3.112L17.284 34.616L1.796 2.716V34H0.344V0.999997H2.412L17.284 31.624L32.288 0.999997H34.312ZM49.8773 34.484C48 34.484 46.2547 34.0147 44.6413 33.076C43.028 32.1373 41.752 30.876 40.8133 29.292C39.8747 27.6787 39.4053 25.948 39.4053 24.1C39.4053 22.252 39.8747 20.536 40.8133 18.952C41.752 17.3387 43.028 16.0627 44.6413 15.124C46.2547 14.1853 48 13.716 49.8773 13.716C51.784 13.716 53.588 14.2293 55.2893 15.256C56.9907 16.2533 58.1787 17.5587 58.8533 19.172V14.2H60.2613V34H58.8533V29.072C58.0613 30.7147 56.8293 32.0347 55.1573 33.032C53.5147 34 51.7547 34.484 49.8773 34.484ZM49.9653 33.252C51.5787 33.252 53.0747 32.8413 54.4533 32.02C55.832 31.1693 56.9173 30.0547 57.7093 28.676C58.5307 27.268 58.9413 25.7427 58.9413 24.1C58.9413 22.4867 58.5307 20.976 57.7093 19.568C56.888 18.16 55.788 17.0453 54.4093 16.224C53.0307 15.3733 51.5347 14.948 49.9213 14.948C48.308 14.948 46.7973 15.3733 45.3893 16.224C44.0107 17.0747 42.896 18.204 42.0453 19.612C41.224 21.02 40.8133 22.5307 40.8133 24.144C40.8133 25.7573 41.224 27.268 42.0453 28.676C42.896 30.0547 44.0253 31.1693 45.4333 32.02C46.8413 32.8413 48.352 33.252 49.9653 33.252ZM75.143 34.484C73.2363 34.484 71.4763 34.0147 69.863 33.076C68.279 32.1373 67.0176 30.876 66.079 29.292C65.1403 27.708 64.671 25.9773 64.671 24.1C64.671 22.2227 65.1403 20.492 66.079 18.908C67.0176 17.324 68.279 16.0627 69.863 15.124C71.4763 14.1853 73.2363 13.716 75.143 13.716C76.991 13.716 78.751 14.2147 80.423 15.212C82.095 16.18 83.327 17.456 84.119 19.04V0.999997H85.527V34H84.119V29.204C83.239 30.788 81.963 32.064 80.291 33.032C78.6483 34 76.9323 34.484 75.143 34.484ZM75.099 33.252C76.7123 33.252 78.2083 32.8413 79.587 32.02C80.995 31.1693 82.1096 30.0547 82.931 28.676C83.7816 27.268 84.207 25.7573 84.207 24.144C84.207 22.5307 83.7816 21.02 82.931 19.612C82.1096 18.204 80.995 17.0747 79.587 16.224C78.2083 15.3733 76.7123 14.948 75.099 14.948C73.4856 14.948 71.9896 15.3733 70.611 16.224C69.2323 17.0453 68.1323 18.16 67.311 19.568C66.4896 20.976 66.079 22.4867 66.079 24.1C66.079 25.7427 66.475 27.268 67.267 28.676C68.0883 30.0547 69.1883 31.1693 70.567 32.02C71.975 32.8413 73.4856 33.252 75.099 33.252ZM91.0806 0.999997H92.4886V18.292C93.1046 16.972 94.1459 15.8867 95.6126 15.036C97.1086 14.156 98.6193 13.716 100.145 13.716C102.931 13.716 105.073 14.4787 106.569 16.004C108.094 17.5293 108.857 19.6853 108.857 22.472V34H107.449V22.472C107.449 20.0667 106.803 18.2187 105.513 16.928C104.251 15.608 102.462 14.948 100.145 14.948C98.7366 14.948 97.4459 15.2853 96.2726 15.96C95.0993 16.6053 94.1753 17.5147 93.5006 18.688C92.8259 19.832 92.4886 21.0933 92.4886 22.472V34H91.0806V0.999997ZM123.829 34.704C121.834 34.704 120.03 34.22 118.417 33.252C116.803 32.2547 115.542 30.9493 114.633 29.336C113.723 27.6933 113.269 25.9187 113.269 24.012C113.269 22.1347 113.723 20.3893 114.633 18.776C115.571 17.1627 116.833 15.8867 118.417 14.948C120.03 13.98 121.819 13.496 123.785 13.496C125.721 13.496 127.481 13.98 129.065 14.948C130.678 15.8867 131.939 17.1627 132.849 18.776C133.758 20.3893 134.213 22.1347 134.213 24.012C134.213 25.9773 133.773 27.7813 132.893 29.424C132.013 31.0373 130.781 32.328 129.197 33.296C127.642 34.2347 125.853 34.704 123.829 34.704ZM123.829 33.472C125.501 33.472 127.026 33.0467 128.405 32.196C129.783 31.3453 130.854 30.216 131.617 28.808C132.409 27.3707 132.805 25.8013 132.805 24.1C132.805 22.428 132.409 20.8733 131.617 19.436C130.825 17.9987 129.739 16.8547 128.361 16.004C126.982 15.1533 125.457 14.728 123.785 14.728C122.113 14.728 120.573 15.168 119.165 16.048C117.786 16.8987 116.686 18.0427 115.865 19.48C115.073 20.9173 114.677 22.472 114.677 24.144C114.677 25.816 115.073 27.3707 115.865 28.808C116.686 30.216 117.786 31.3453 119.165 32.196C120.573 33.0467 122.127 33.472 123.829 33.472ZM138.174 14.2H139.582V18.776C140.169 17.3387 141.02 16.2093 142.134 15.388C143.278 14.5667 144.569 14.156 146.006 14.156C146.916 14.156 147.84 14.3467 148.778 14.728V16.356C147.928 15.7107 146.974 15.388 145.918 15.388C144.862 15.388 143.836 15.7107 142.838 16.356C141.87 17.0013 141.078 17.8667 140.462 18.952C139.876 20.0373 139.582 21.196 139.582 22.428V34H138.174V14.2ZM157.064 34.484C155.656 34.484 154.409 34.2493 153.324 33.78C152.239 33.2813 151.461 32.6507 150.992 31.888V29.556C151.549 30.8173 152.312 31.756 153.28 32.372C154.248 32.9587 155.48 33.252 156.976 33.252C158.413 33.252 159.572 32.812 160.452 31.932C161.332 31.0227 161.772 29.864 161.772 28.456C161.772 27.2533 161.523 26.3293 161.024 25.684C160.525 25.0093 159.719 24.3347 158.604 23.66L156.932 22.692C155.729 21.9587 154.82 21.3867 154.204 20.976C153.617 20.536 153.148 20.052 152.796 19.524C152.444 18.9667 152.268 18.3213 152.268 17.588C152.268 16.4147 152.679 15.476 153.5 14.772C154.321 14.068 155.392 13.716 156.712 13.716C158.325 13.716 159.675 14.0827 160.76 14.816V16.752C159.851 15.5493 158.545 14.948 156.844 14.948C155.905 14.948 155.143 15.1827 154.556 15.652C153.969 16.1213 153.676 16.7227 153.676 17.456C153.676 18.1013 153.852 18.6733 154.204 19.172C154.556 19.6413 155.04 20.0813 155.656 20.492C156.301 20.9027 157.357 21.5187 158.824 22.34C160.32 23.1907 161.42 24.0707 162.124 24.98C162.828 25.86 163.18 27.0187 163.18 28.456C163.18 30.2747 162.579 31.7413 161.376 32.856C160.203 33.9413 158.765 34.484 157.064 34.484ZM177.201 33.296C178.726 33.296 180.178 32.9 181.557 32.108C182.936 31.316 184.08 30.2307 184.989 28.852V31.096C183.904 32.2987 182.716 33.1787 181.425 33.736C180.134 34.264 178.668 34.528 177.025 34.528C175.206 34.528 173.49 34.044 171.877 33.076C170.293 32.108 169.017 30.8173 168.049 29.204C167.11 27.5907 166.641 25.8747 166.641 24.056C166.641 22.0907 167.11 20.3307 168.049 18.776C168.988 17.192 170.264 15.96 171.877 15.08C173.52 14.2 175.338 13.76 177.333 13.76C180.384 13.76 182.98 14.9627 185.121 17.368L171.305 31.008C172.273 31.8 173.212 32.3867 174.121 32.768C175.03 33.12 176.057 33.296 177.201 33.296ZM168.049 23.924C168.049 26.3587 168.856 28.4413 170.469 30.172L183.361 17.368C182.393 16.5173 181.454 15.916 180.545 15.564C179.636 15.1827 178.55 14.992 177.289 14.992C175.5 14.992 173.901 15.388 172.493 16.18C171.114 16.9427 170.029 17.9987 169.237 19.348C168.445 20.6973 168.049 22.2227 168.049 23.924ZM215.382 34.88C212.302 34.88 209.471 34.132 206.89 32.636C204.309 31.1107 202.255 29.028 200.73 26.388C199.234 23.7187 198.486 20.7267 198.486 17.412C198.486 14.2147 199.263 11.296 200.818 8.656C202.402 6.016 204.499 3.93333 207.11 2.408C209.75 0.882665 212.551 0.119998 215.514 0.119998C217.567 0.119998 219.195 0.310665 220.398 0.691999C221.601 1.044 222.994 1.67466 224.578 2.584V4.212C223.082 3.18533 221.689 2.46667 220.398 2.056C219.137 1.616 217.553 1.396 215.646 1.396C212.742 1.396 210.087 2.144 207.682 3.64C205.306 5.10666 203.414 7.08667 202.006 9.58C200.627 12.044 199.938 14.6987 199.938 17.544C199.938 20.4187 200.642 23.088 202.05 25.552C203.458 28.016 205.321 29.9813 207.638 31.448C209.985 32.8853 212.507 33.604 215.206 33.604C217.142 33.604 218.829 33.384 220.266 32.944C221.703 32.4747 223.141 31.756 224.578 30.788V32.416C223.17 33.2667 221.718 33.8827 220.222 34.264C218.755 34.6747 217.142 34.88 215.382 34.88ZM238.684 34.704C236.689 34.704 234.885 34.22 233.272 33.252C231.659 32.2547 230.397 30.9493 229.488 29.336C228.579 27.6933 228.124 25.9187 228.124 24.012C228.124 22.1347 228.579 20.3893 229.488 18.776C230.427 17.1627 231.688 15.8867 233.272 14.948C234.885 13.98 236.675 13.496 238.64 13.496C240.576 13.496 242.336 13.98 243.92 14.948C245.533 15.8867 246.795 17.1627 247.704 18.776C248.613 20.3893 249.068 22.1347 249.068 24.012C249.068 25.9773 248.628 27.7813 247.748 29.424C246.868 31.0373 245.636 32.328 244.052 33.296C242.497 34.2347 240.708 34.704 238.684 34.704ZM238.684 33.472C240.356 33.472 241.881 33.0467 243.26 32.196C244.639 31.3453 245.709 30.216 246.472 28.808C247.264 27.3707 247.66 25.8013 247.66 24.1C247.66 22.428 247.264 20.8733 246.472 19.436C245.68 17.9987 244.595 16.8547 243.216 16.004C241.837 15.1533 240.312 14.728 238.64 14.728C236.968 14.728 235.428 15.168 234.02 16.048C232.641 16.8987 231.541 18.0427 230.72 19.48C229.928 20.9173 229.532 22.472 229.532 24.144C229.532 25.816 229.928 27.3707 230.72 28.808C231.541 30.216 232.641 31.3453 234.02 32.196C235.428 33.0467 236.983 33.472 238.684 33.472ZM253.03 14.2H254.438V18.776C255.024 17.3387 255.875 16.2093 256.99 15.388C258.134 14.5667 259.424 14.156 260.862 14.156C261.771 14.156 262.695 14.3467 263.634 14.728V16.356C262.783 15.7107 261.83 15.388 260.774 15.388C259.718 15.388 258.691 15.7107 257.694 16.356C256.726 17.0013 255.934 17.8667 255.318 18.952C254.731 20.0373 254.438 21.196 254.438 22.428V34H253.03V14.2ZM267.124 14.2H268.532V19.04C269.324 17.456 270.556 16.18 272.228 15.212C273.9 14.2147 275.66 13.716 277.508 13.716C279.414 13.716 281.16 14.1853 282.744 15.124C284.357 16.0627 285.633 17.324 286.572 18.908C287.51 20.492 287.98 22.2227 287.98 24.1C287.98 25.9773 287.51 27.708 286.572 29.292C285.633 30.876 284.357 32.1373 282.744 33.076C281.16 34.0147 279.414 34.484 277.508 34.484C275.718 34.484 273.988 34 272.316 33.032C270.673 32.064 269.412 30.788 268.532 29.204V42.8H267.124V14.2ZM277.596 33.252C279.209 33.252 280.705 32.8413 282.084 32.02C283.462 31.1693 284.548 30.0547 285.34 28.676C286.161 27.268 286.572 25.7427 286.572 24.1C286.572 22.4867 286.161 20.976 285.34 19.568C284.518 18.16 283.418 17.0453 282.04 16.224C280.661 15.3733 279.165 14.948 277.552 14.948C275.938 14.948 274.428 15.3733 273.02 16.224C271.641 17.0747 270.526 18.204 269.676 19.612C268.854 21.02 268.444 22.5307 268.444 24.144C268.444 25.7573 268.854 27.268 269.676 28.676C270.526 30.0547 271.656 31.1693 273.064 32.02C274.472 32.8413 275.982 33.252 277.596 33.252ZM292.653 34.396C292.243 34.396 291.876 34.2493 291.553 33.956C291.26 33.6627 291.113 33.296 291.113 32.856C291.113 32.4453 291.26 32.0933 291.553 31.8C291.876 31.5067 292.243 31.36 292.653 31.36C293.064 31.36 293.416 31.5067 293.709 31.8C294.032 32.0933 294.193 32.4453 294.193 32.856C294.193 33.296 294.032 33.6627 293.709 33.956C293.416 34.2493 293.064 34.396 292.653 34.396Z" fill="white"/>
</svg>
