<svg width="256" height="45" viewBox="0 0 256 45" fill="none" xmlns="http://www.w3.org/2000/svg">
<path d="M1.796 34C1.41467 34 1.07733 33.912 0.784 33.736C0.490667 33.5307 0.344 33.2373 0.344 32.856V3.244C0.344 2.716 0.490667 2.34933 0.784 2.144C1.07733 1.93867 1.41467 1.836 1.796 1.836C2.148 1.836 2.456 1.93867 2.72 2.144C3.01333 2.32 3.27733 2.56933 3.512 2.892C3.74667 3.18533 3.952 3.52267 4.128 3.904L11.696 18.468L19.22 3.904C19.4547 3.52267 19.6747 3.18533 19.88 2.892C20.1147 2.56933 20.3787 2.32 20.672 2.144C20.9653 1.93867 21.2733 1.836 21.596 1.836C22.0067 1.836 22.344 1.93867 22.608 2.144C22.9013 2.34933 23.048 2.716 23.048 3.244V32.856C23.048 33.2373 22.9013 33.5307 22.608 33.736C22.3147 33.912 21.9773 34 21.596 34C21.244 34 20.9067 33.912 20.584 33.736C20.2907 33.5307 20.144 33.2373 20.144 32.856V8.128L12.84 21.944C12.664 22.296 12.4733 22.5453 12.268 22.692C12.0627 22.8387 11.8573 22.912 11.652 22.912C11.476 22.912 11.2853 22.8387 11.08 22.692C10.8747 22.5453 10.6693 22.296 10.464 21.944L3.248 8.04V32.856C3.248 33.2373 3.08667 33.5307 2.764 33.736C2.47067 33.912 2.148 34 1.796 34ZM33.7386 34.308C32.0666 34.308 30.644 33.8387 29.4706 32.9C28.3266 31.932 27.7546 30.4653 27.7546 28.5C27.7546 26.8867 28.18 25.6547 29.0306 24.804C29.9106 23.924 31.1133 23.3227 32.6386 23C34.1933 22.648 35.9826 22.472 38.0066 22.472H40.2506V21.46C40.2506 20.492 40.0746 19.5533 39.7226 18.644C39.4 17.7053 38.8573 16.9427 38.0946 16.356C37.3613 15.74 36.3493 15.432 35.0586 15.432C34.0906 15.432 33.2986 15.5347 32.6826 15.74C32.0666 15.9453 31.5826 16.1653 31.2306 16.4C30.8786 16.6053 30.5853 16.708 30.3506 16.708C29.9986 16.708 29.7053 16.532 29.4706 16.18C29.2653 15.828 29.1626 15.5053 29.1626 15.212C29.1626 14.8013 29.4706 14.4347 30.0866 14.112C30.7026 13.76 31.4653 13.4813 32.3746 13.276C33.3133 13.0413 34.2373 12.924 35.1466 12.924C37.112 12.924 38.6666 13.3347 39.8106 14.156C40.984 14.948 41.82 15.9893 42.3186 17.28C42.8466 18.5707 43.1106 19.9493 43.1106 21.416V32.856C43.1106 33.1787 42.9786 33.4573 42.7146 33.692C42.48 33.8973 42.1426 34 41.7026 34C41.3506 34 41.028 33.8973 40.7346 33.692C40.4706 33.4573 40.3386 33.1787 40.3386 32.856V30.92C39.6053 31.8 38.696 32.592 37.6106 33.296C36.5253 33.9707 35.2346 34.308 33.7386 34.308ZM34.4426 31.888C35.4106 31.888 36.3346 31.6387 37.2146 31.14C38.0946 30.6413 38.8133 30.04 39.3706 29.336C39.9573 28.6027 40.2506 27.9133 40.2506 27.268V24.452H38.4026C37.0826 24.452 35.8213 24.54 34.6186 24.716C33.4453 24.8627 32.4773 25.2 31.7146 25.728C30.9813 26.256 30.6146 27.092 30.6146 28.236C30.6146 29.4973 30.9813 30.4213 31.7146 31.008C32.4773 31.5947 33.3866 31.888 34.4426 31.888ZM55.4076 34.308C54.0583 34.308 52.7823 33.9267 51.5796 33.164C50.3769 32.372 49.4089 31.3307 48.6756 30.04C47.9716 28.7493 47.6196 27.3853 47.6196 25.948V21.196C47.6196 19.6707 47.9716 18.292 48.6756 17.06C49.4089 15.7987 50.3769 14.8013 51.5796 14.068C52.7823 13.3053 54.1023 12.924 55.5396 12.924C56.9769 12.924 58.1796 13.276 59.1476 13.98C60.1449 14.6547 60.8783 15.4173 61.3476 16.268V1.528C61.3476 1.176 61.4943 0.911998 61.7876 0.735998C62.0809 0.530666 62.4183 0.427999 62.7996 0.427999C63.2396 0.427999 63.5769 0.530666 63.8116 0.735998C64.0756 0.911998 64.2076 1.176 64.2076 1.528V32.856C64.2076 33.1493 64.0756 33.4133 63.8116 33.648C63.5769 33.8827 63.2396 34 62.7996 34C62.4476 34 62.1249 33.8827 61.8316 33.648C61.5676 33.4133 61.4356 33.1493 61.4356 32.856V30.92C60.9956 31.8293 60.2183 32.6213 59.1036 33.296C58.0183 33.9707 56.7863 34.308 55.4076 34.308ZM55.9356 31.668C56.9916 31.668 57.9156 31.404 58.7076 30.876C59.5289 30.3187 60.1743 29.7027 60.6436 29.028C61.1129 28.324 61.3476 27.752 61.3476 27.312V21.196C61.3476 19.9933 61.0836 18.9813 60.5556 18.16C60.0276 17.3387 59.3529 16.708 58.5316 16.268C57.7103 15.7987 56.8596 15.564 55.9796 15.564C54.9823 15.564 54.0729 15.8427 53.2516 16.4C52.4303 16.928 51.7703 17.6173 51.2716 18.468C50.7729 19.3187 50.5236 20.228 50.5236 21.196V25.948C50.5236 26.916 50.7729 27.84 51.2716 28.72C51.7703 29.6 52.4303 30.3187 53.2516 30.876C54.0729 31.404 54.9676 31.668 55.9356 31.668ZM71.1761 34C70.7948 34 70.4574 33.8827 70.1641 33.648C69.9001 33.4133 69.7681 33.1493 69.7681 32.856V1.528C69.7681 1.176 69.9001 0.911998 70.1641 0.735998C70.4574 0.530666 70.7948 0.427999 71.1761 0.427999C71.5868 0.427999 71.9241 0.530666 72.1881 0.735998C72.4814 0.911998 72.6281 1.176 72.6281 1.528V16.268C73.1268 15.4173 73.8601 14.6547 74.8281 13.98C75.7961 13.276 76.9988 12.924 78.4361 12.924C79.8441 12.924 81.1348 13.3053 82.3081 14.068C83.5108 14.8013 84.4641 15.7987 85.1681 17.06C85.8721 18.292 86.2241 19.6707 86.2241 21.196V32.856C86.2241 33.2373 86.0774 33.5307 85.7841 33.736C85.4908 33.912 85.1534 34 84.7721 34C84.4494 34 84.1268 33.912 83.8041 33.736C83.5108 33.5307 83.3641 33.2373 83.3641 32.856V21.196C83.3641 20.228 83.1148 19.3187 82.6161 18.468C82.1174 17.6173 81.4574 16.928 80.6361 16.4C79.8148 15.8427 78.9054 15.564 77.9081 15.564C77.0281 15.564 76.1774 15.7987 75.3561 16.268C74.5641 16.708 73.9041 17.3387 73.3761 18.16C72.8774 18.9813 72.6281 19.9933 72.6281 21.196V32.856C72.6281 33.1493 72.4814 33.4133 72.1881 33.648C71.9241 33.8827 71.5868 34 71.1761 34ZM99.0773 34.308C97.5813 34.308 96.2026 33.9267 94.9413 33.164C93.6799 32.372 92.6533 31.3453 91.8613 30.084C91.0986 28.7933 90.7173 27.4147 90.7173 25.948V21.196C90.7173 19.7 91.0839 18.336 91.8173 17.104C92.5799 15.8427 93.5919 14.8307 94.8533 14.068C96.1439 13.3053 97.5519 12.924 99.0773 12.924C100.573 12.924 101.952 13.3053 103.213 14.068C104.504 14.8013 105.531 15.784 106.293 17.016C107.056 18.248 107.437 19.6413 107.437 21.196V25.948C107.437 27.3853 107.056 28.7493 106.293 30.04C105.531 31.3307 104.504 32.372 103.213 33.164C101.952 33.9267 100.573 34.308 99.0773 34.308ZM99.0773 31.668C100.104 31.668 101.028 31.404 101.849 30.876C102.671 30.3187 103.331 29.6 103.829 28.72C104.328 27.84 104.577 26.916 104.577 25.948V21.196C104.577 20.228 104.328 19.3187 103.829 18.468C103.36 17.6173 102.7 16.928 101.849 16.4C101.028 15.8427 100.104 15.564 99.0773 15.564C98.0506 15.564 97.1266 15.8427 96.3053 16.4C95.4839 16.928 94.8239 17.6173 94.3253 18.468C93.8266 19.3187 93.5773 20.228 93.5773 21.196V25.948C93.5773 26.916 93.8266 27.84 94.3253 28.72C94.8239 29.6 95.4839 30.3187 96.3053 30.876C97.1559 31.404 98.0799 31.668 99.0773 31.668ZM113.542 34C113.161 34 112.824 33.8827 112.53 33.648C112.266 33.4133 112.134 33.1493 112.134 32.856V14.288C112.134 13.936 112.266 13.672 112.53 13.496C112.824 13.2907 113.161 13.188 113.542 13.188C113.924 13.188 114.246 13.2907 114.51 13.496C114.774 13.672 114.906 13.936 114.906 14.288V16.444C115.229 15.828 115.669 15.256 116.226 14.728C116.784 14.2 117.444 13.7747 118.206 13.452C118.969 13.1 119.834 12.924 120.802 12.924H122.342C122.665 12.924 122.929 13.056 123.134 13.32C123.369 13.584 123.486 13.892 123.486 14.244C123.486 14.6253 123.369 14.948 123.134 15.212C122.929 15.4467 122.665 15.564 122.342 15.564H120.802C119.834 15.564 118.896 15.828 117.986 16.356C117.106 16.884 116.388 17.6173 115.83 18.556C115.273 19.4947 114.994 20.6387 114.994 21.988V32.856C114.994 33.1493 114.848 33.4133 114.554 33.648C114.29 33.8827 113.953 34 113.542 34ZM132.162 34.308C130.783 34.308 129.566 34.132 128.51 33.78C127.483 33.428 126.676 33.0173 126.09 32.548C125.532 32.0493 125.254 31.58 125.254 31.14C125.254 30.9347 125.298 30.744 125.386 30.568C125.474 30.3627 125.591 30.1867 125.738 30.04C125.914 29.8933 126.09 29.82 126.266 29.82C126.588 29.82 126.94 29.996 127.322 30.348C127.732 30.6707 128.29 31.008 128.994 31.36C129.727 31.712 130.754 31.888 132.074 31.888C133.746 31.888 134.919 31.58 135.594 30.964C136.268 30.3187 136.606 29.5853 136.606 28.764C136.606 27.796 136.342 27.048 135.814 26.52C135.315 25.9627 134.64 25.5373 133.79 25.244C132.968 24.9507 132.088 24.672 131.15 24.408C130.24 24.144 129.36 23.8213 128.51 23.44C127.688 23.0587 127.014 22.516 126.486 21.812C125.987 21.0787 125.738 20.1107 125.738 18.908C125.738 17.9693 125.972 17.0453 126.442 16.136C126.911 15.2267 127.644 14.464 128.642 13.848C129.668 13.232 131.018 12.924 132.69 12.924C133.658 12.924 134.596 13.0267 135.506 13.232C136.415 13.4373 137.148 13.716 137.706 14.068C138.292 14.3907 138.586 14.7427 138.586 15.124C138.586 15.2413 138.527 15.432 138.41 15.696C138.322 15.9307 138.19 16.136 138.014 16.312C137.838 16.488 137.632 16.576 137.398 16.576C137.163 16.576 136.84 16.4733 136.43 16.268C136.048 16.0627 135.55 15.8573 134.934 15.652C134.318 15.4467 133.584 15.344 132.734 15.344C131.678 15.344 130.827 15.5347 130.182 15.916C129.536 16.2973 129.067 16.752 128.774 17.28C128.48 17.808 128.334 18.3213 128.334 18.82C128.334 19.6413 128.598 20.272 129.126 20.712C129.654 21.152 130.328 21.5187 131.15 21.812C132 22.076 132.88 22.34 133.79 22.604C134.728 22.8387 135.608 23.176 136.43 23.616C137.28 24.056 137.955 24.672 138.454 25.464C138.982 26.256 139.246 27.312 139.246 28.632C139.246 30.3627 138.63 31.7413 137.398 32.768C136.166 33.7947 134.42 34.308 132.162 34.308ZM152.213 34.308C150.365 34.308 148.723 33.956 147.285 33.252C145.877 32.548 144.763 31.58 143.941 30.348C143.149 29.0867 142.753 27.62 142.753 25.948V21.064C142.753 19.5973 143.135 18.248 143.897 17.016C144.66 15.7547 145.672 14.7573 146.933 14.024C148.224 13.2907 149.632 12.924 151.157 12.924C152.624 12.924 153.973 13.276 155.205 13.98C156.467 14.6547 157.479 15.5933 158.241 16.796C159.004 17.9987 159.385 19.392 159.385 20.976C159.385 22.0907 159.195 22.8973 158.813 23.396C158.432 23.8947 157.948 24.2027 157.361 24.32C156.804 24.408 156.203 24.452 155.557 24.452H145.613V26.08C145.613 27.84 146.244 29.2333 147.505 30.26C148.767 31.2867 150.365 31.8 152.301 31.8C153.475 31.8 154.384 31.6533 155.029 31.36C155.675 31.0667 156.173 30.7733 156.525 30.48C156.907 30.1867 157.259 30.04 157.581 30.04C157.816 30.04 158.021 30.128 158.197 30.304C158.403 30.4507 158.549 30.6267 158.637 30.832C158.755 31.0373 158.813 31.228 158.813 31.404C158.813 31.7267 158.549 32.1227 158.021 32.592C157.493 33.0613 156.731 33.472 155.733 33.824C154.736 34.1467 153.563 34.308 152.213 34.308ZM145.613 22.34H154.413C155.293 22.34 155.88 22.252 156.173 22.076C156.467 21.8707 156.613 21.46 156.613 20.844C156.613 19.9053 156.379 19.0253 155.909 18.204C155.44 17.3533 154.795 16.664 153.973 16.136C153.152 15.5787 152.199 15.3 151.113 15.3C150.116 15.3 149.192 15.5493 148.341 16.048C147.52 16.5467 146.86 17.192 146.361 17.984C145.863 18.776 145.613 19.6707 145.613 20.668V22.34ZM181.878 34.264C180.236 34.264 178.71 33.956 177.302 33.34C175.894 32.724 174.78 31.7267 173.958 30.348C173.137 28.9693 172.726 27.136 172.726 24.848V11.252C172.726 8.964 173.152 7.13067 174.002 5.752C174.853 4.37333 175.968 3.376 177.346 2.76C178.754 2.144 180.294 1.836 181.966 1.836C183.902 1.836 185.545 2.17333 186.894 2.848C188.244 3.52266 189.27 4.41733 189.974 5.532C190.708 6.64667 191.074 7.87867 191.074 9.228C191.074 9.932 190.942 10.4013 190.678 10.636C190.444 10.8413 190.092 10.944 189.622 10.944C189.094 10.944 188.713 10.8413 188.478 10.636C188.273 10.4013 188.156 10.1373 188.126 9.844C188.126 9.37467 188.038 8.84667 187.862 8.26C187.716 7.644 187.422 7.05733 186.982 6.5C186.572 5.91333 185.956 5.444 185.134 5.092C184.342 4.71067 183.301 4.52 182.01 4.52C179.957 4.52 178.388 5.07733 177.302 6.192C176.217 7.27733 175.674 8.964 175.674 11.252V24.848C175.674 27.1653 176.217 28.8667 177.302 29.952C178.417 31.0373 180.03 31.58 182.142 31.58C183.462 31.58 184.504 31.404 185.266 31.052C186.029 30.6707 186.601 30.216 186.982 29.688C187.364 29.1307 187.628 28.544 187.774 27.928C187.95 27.2827 188.068 26.696 188.126 26.168C188.185 25.7867 188.317 25.508 188.522 25.332C188.757 25.1267 189.109 25.024 189.578 25.024C190.077 25.024 190.444 25.156 190.678 25.42C190.942 25.6547 191.074 26.124 191.074 26.828C191.074 28.148 190.708 29.38 189.974 30.524C189.241 31.6387 188.185 32.548 186.806 33.252C185.457 33.9267 183.814 34.264 181.878 34.264ZM203.148 34.308C201.652 34.308 200.273 33.9267 199.012 33.164C197.75 32.372 196.724 31.3453 195.932 30.084C195.169 28.7933 194.788 27.4147 194.788 25.948V21.196C194.788 19.7 195.154 18.336 195.888 17.104C196.65 15.8427 197.662 14.8307 198.924 14.068C200.214 13.3053 201.622 12.924 203.148 12.924C204.644 12.924 206.022 13.3053 207.284 14.068C208.574 14.8013 209.601 15.784 210.364 17.016C211.126 18.248 211.508 19.6413 211.508 21.196V25.948C211.508 27.3853 211.126 28.7493 210.364 30.04C209.601 31.3307 208.574 32.372 207.284 33.164C206.022 33.9267 204.644 34.308 203.148 34.308ZM203.148 31.668C204.174 31.668 205.098 31.404 205.92 30.876C206.741 30.3187 207.401 29.6 207.9 28.72C208.398 27.84 208.648 26.916 208.648 25.948V21.196C208.648 20.228 208.398 19.3187 207.9 18.468C207.43 17.6173 206.77 16.928 205.92 16.4C205.098 15.8427 204.174 15.564 203.148 15.564C202.121 15.564 201.197 15.8427 200.376 16.4C199.554 16.928 198.894 17.6173 198.396 18.468C197.897 19.3187 197.648 20.228 197.648 21.196V25.948C197.648 26.916 197.897 27.84 198.396 28.72C198.894 29.6 199.554 30.3187 200.376 30.876C201.226 31.404 202.15 31.668 203.148 31.668ZM217.613 34C217.231 34 216.894 33.8827 216.601 33.648C216.337 33.4133 216.205 33.1493 216.205 32.856V14.288C216.205 13.936 216.337 13.672 216.601 13.496C216.894 13.2907 217.231 13.188 217.613 13.188C217.994 13.188 218.317 13.2907 218.581 13.496C218.845 13.672 218.977 13.936 218.977 14.288V16.444C219.299 15.828 219.739 15.256 220.297 14.728C220.854 14.2 221.514 13.7747 222.277 13.452C223.039 13.1 223.905 12.924 224.873 12.924H226.413C226.735 12.924 226.999 13.056 227.205 13.32C227.439 13.584 227.557 13.892 227.557 14.244C227.557 14.6253 227.439 14.948 227.205 15.212C226.999 15.4467 226.735 15.564 226.413 15.564H224.873C223.905 15.564 222.966 15.828 222.057 16.356C221.177 16.884 220.458 17.6173 219.901 18.556C219.343 19.4947 219.065 20.6387 219.065 21.988V32.856C219.065 33.1493 218.918 33.4133 218.625 33.648C218.361 33.8827 218.023 34 217.613 34ZM232.18 44.208C231.799 44.208 231.461 44.0907 231.168 43.856C230.904 43.6213 230.772 43.3573 230.772 43.064V14.288C230.772 13.936 230.904 13.672 231.168 13.496C231.461 13.2907 231.799 13.188 232.18 13.188C232.561 13.188 232.884 13.2907 233.148 13.496C233.412 13.672 233.544 13.936 233.544 14.288V16.268C234.043 15.4173 234.791 14.6547 235.788 13.98C236.785 13.276 238.003 12.924 239.44 12.924C240.907 12.924 242.227 13.3053 243.4 14.068C244.603 14.8013 245.556 15.7987 246.26 17.06C246.993 18.292 247.36 19.6707 247.36 21.196V25.948C247.36 27.3853 246.993 28.7493 246.26 30.04C245.556 31.3307 244.617 32.372 243.444 33.164C242.271 33.9267 240.98 34.308 239.572 34.308C238.223 34.308 237.02 33.9707 235.964 33.296C234.908 32.6213 234.131 31.8293 233.632 30.92V43.064C233.632 43.3573 233.485 43.6213 233.192 43.856C232.928 44.0907 232.591 44.208 232.18 44.208ZM239.044 31.668C240.012 31.668 240.907 31.404 241.728 30.876C242.549 30.3187 243.209 29.6 243.708 28.72C244.236 27.84 244.5 26.916 244.5 25.948V21.196C244.5 20.228 244.236 19.3187 243.708 18.468C243.209 17.6173 242.549 16.928 241.728 16.4C240.907 15.8427 239.983 15.564 238.956 15.564C238.076 15.564 237.225 15.7987 236.404 16.268C235.612 16.708 234.952 17.3387 234.424 18.16C233.896 18.9813 233.632 19.9933 233.632 21.196V27.312C233.632 27.752 233.867 28.324 234.336 29.028C234.805 29.7027 235.451 30.3187 236.272 30.876C237.093 31.404 238.017 31.668 239.044 31.668ZM253.097 34.264C252.51 34.264 252.011 34.0587 251.601 33.648C251.219 33.2373 251.029 32.768 251.029 32.24C251.029 31.6533 251.219 31.1693 251.601 30.788C252.011 30.3773 252.51 30.172 253.097 30.172C253.625 30.172 254.079 30.3773 254.461 30.788C254.871 31.1693 255.077 31.6533 255.077 32.24C255.077 32.768 254.871 33.2373 254.461 33.648C254.079 34.0587 253.625 34.264 253.097 34.264Z" fill="white"/>
</svg>
